<svg xmlns="http://www.w3.org/2000/svg" xmlns:xlink="http://www.w3.org/1999/xlink" width="107" height="36" viewBox="0 0 107 36">
    <defs>
        <rect id="b" width="106.25" height="34" rx="17"/>
        <filter id="a" width="101.9%" height="111.8%" x="-.9%" y="-2.9%" filterUnits="objectBoundingBox">
            <feOffset dy="2" in="SourceAlpha" result="shadowOffsetOuter1"/>
            <feComposite in="shadowOffsetOuter1" in2="SourceAlpha" operator="out" result="shadowOffsetOuter1"/>
            <feColorMatrix in="shadowOffsetOuter1" values="0 0 0 0 0 0 0 0 0 0 0 0 0 0 0 0 0 0 0.197293931 0"/>
        </filter>
    </defs>
    <g fill="none" fill-rule="evenodd">
        <g>
            <use fill="#000" filter="url(#a)" xlink:href="#b"/>
            <use fill="#52C24B" xlink:href="#b"/>
            <rect width="105.25" height="33" x=".5" y=".5" stroke="#EDEDED" rx="16.5"/>
        </g>
        <g fill-rule="nonzero">
            <g fill="#FFF" stroke="#52C24B" stroke-width=".511">
                <path d="M26.633 20.564c2.267-1.237 3.915-2.164 4.122-2.267.515-.206.927-.927 0-1.442-.31-.207-1.958-1.03-4.122-2.267l-2.988 3.09 2.988 2.886z"/>
                <path d="M23.645 17.679l-9.375 9.479c.206 0 .515 0 .72-.206.62-.31 7.11-3.916 11.643-6.388l-2.988-2.885zM23.645 17.679l2.988-2.988s-10.92-5.976-11.642-6.285c-.206-.206-.515-.206-.721-.206l9.375 9.479z"/>
                <path d="M23.645 17.679L14.27 8.2c-.412.103-.722.412-.722 1.133v16.691c0 .618.207 1.134.722 1.134l9.375-9.48z"/>
            </g>
            <path fill="#F9F9F9" d="M79.31 21.592c-.392 0-.75-.073-1.075-.22a2.032 2.032 0 0 1-.818-.673h-.066c.044.355.066.692.066 1.01v2.503h-.913v-8.813h.743l.126.832h.044c.235-.333.509-.573.82-.721.312-.148.67-.222 1.073-.222.8 0 1.418.275 1.853.827.434.55.652 1.324.652 2.32 0 .998-.221 1.774-.663 2.328-.442.553-1.056.829-1.841.829zm-.132-5.522c-.616 0-1.062.172-1.337.516-.275.344-.417.892-.424 1.643v.205c0 .855.141 1.466.424 1.835.283.368.736.552 1.36.552.52 0 .93-.213 1.225-.638.295-.426.442-1.012.442-1.76 0-.758-.147-1.34-.442-1.745-.296-.406-.712-.608-1.248-.608zm4.753 5.41h-.914v-8.634h.914v8.635zm5.253 0l-.182-.865h-.044c-.3.382-.6.64-.9.774-.299.136-.672.203-1.12.203-.598 0-1.067-.155-1.406-.466-.34-.31-.51-.753-.51-1.326 0-1.228.975-1.872 2.923-1.932l1.024-.033v-.377c0-.478-.102-.83-.305-1.058-.204-.227-.53-.341-.977-.341-.503 0-1.072.155-1.707.466l-.28-.705c.297-.163.622-.29.977-.383a4.198 4.198 0 0 1 1.065-.138c.72 0 1.252.16 1.599.482.347.322.52.838.52 1.549v4.15h-.677zm-2.064-.648c.568 0 1.015-.157 1.34-.472.324-.314.487-.755.487-1.32v-.55l-.914.038c-.726.027-1.25.14-1.571.342-.321.202-.482.515-.482.94 0 .334.1.587.3.76.2.175.48.262.84.262zm3.271-5.433h.98l1.32 3.468c.29.792.47 1.364.54 1.715h.045c.047-.189.147-.511.3-.969.152-.457.65-1.861 1.494-4.214h.98l-2.593 6.926c-.257.684-.557 1.17-.9 1.457-.343.286-.764.43-1.263.43a3.66 3.66 0 0 1-.826-.095v-.738c.202.045.428.067.677.067.628 0 1.075-.355 1.343-1.066l.336-.865-2.433-6.116zm-28.006.565c.29.242.895.75.895 1.718 0 .94-.53 1.387-1.06 1.806-.164.165-.353.344-.353.624s.19.432.328.547l.455.355c.555.471 1.06.904 1.06 1.782 0 1.196-1.15 2.404-3.319 2.404-1.83 0-2.713-.878-2.713-1.82 0-.457.226-1.106.972-1.552.782-.483 1.842-.546 2.41-.585-.177-.229-.379-.47-.379-.864 0-.216.064-.344.126-.497a4.53 4.53 0 0 1-.404.026c-1.337 0-2.094-1.005-2.094-1.997 0-.586.265-1.235.807-1.705.72-.598 1.578-.7 2.26-.7h2.598l-.807.458h-.782zm-.896 5.649c-.101-.014-.165-.014-.29-.014-.114 0-.796.026-1.325.205-.278.1-1.086.406-1.086 1.31 0 .903.871 1.553 2.222 1.553 1.21 0 1.854-.587 1.854-1.375 0-.65-.416-.992-1.375-1.68zm.366-2.418c.29-.293.314-.7.314-.929 0-.915-.542-2.34-1.589-2.34-.328 0-.681.165-.883.42-.215.267-.278.61-.278.941 0 .852.492 2.265 1.578 2.265.315 0 .655-.153.858-.357zM54.44 21.41c-2.003 0-3.074-1.575-3.074-2.998 0-1.664 1.348-3.086 3.264-3.086 1.85 0 3.01 1.46 3.01 2.998 0 1.498-1.146 3.086-3.2 3.086zm1.574-1.029c.303-.406.379-.914.379-1.41 0-1.118-.53-3.252-2.091-3.252-.416 0-.832.166-1.134.433-.491.444-.58 1.003-.58 1.55 0 1.256.617 3.326 2.142 3.326.491 0 .995-.24 1.284-.647zm-8.402 1.03c-2.003 0-3.074-1.576-3.074-2.999 0-1.664 1.348-3.086 3.263-3.086 1.852 0 3.01 1.46 3.01 2.998 0 1.498-1.145 3.086-3.2 3.086zm1.575-1.03c.302-.406.378-.914.378-1.41 0-1.118-.53-3.252-2.092-3.252-.415 0-.831.166-1.133.433-.492.444-.58 1.003-.58 1.55 0 1.256.617 3.326 2.142 3.326.491 0 .995-.24 1.285-.647zm-5.612.83l-1.811.421c-.735.116-1.393.217-2.09.217-3.496 0-4.825-2.593-4.825-4.623 0-2.477 1.887-4.775 5.117-4.775.684 0 1.342.102 1.937.268.95.268 1.393.6 1.672.792l-1.051 1.009-.443.101.316-.51c-.43-.422-1.216-1.2-2.71-1.2-2.001 0-3.509 1.532-3.509 3.767 0 2.4 1.723 4.66 4.483 4.66.812 0 1.229-.165 1.61-.32v-2.054l-1.913.102 1.013-.55h2.685l-.329.32c-.09.076-.102.102-.127.203a9.186 9.186 0 0 0-.025.613v1.559z"/>
            <path fill="#F9F9F9" d="M66.42 21.208c-.416-.04-.503-.116-.503-.62v-7.294l.007-.083c.05-.451.176-.529.566-.761h-1.797l-.943.464h.96v.006-.005 7.958c0 .257-.05.296-.339.682h2.225l.465-.282c-.214-.027-.428-.04-.642-.065zm5.113.118c-.137.077-.274.167-.411.23a2.845 2.845 0 0 1-1.212.244c-.398 0-1.023-.026-1.66-.5-.885-.64-1.272-1.74-1.272-2.7 0-1.984 1.572-2.957 2.858-2.957.45 0 .911.115 1.286.359.623.421.785.972.872 1.266l-2.932 1.217-.961.076c.312 1.626 1.385 2.573 2.57 2.573.637 0 1.1-.23 1.523-.448l-.661.64zm-1.173-3.815c.237-.09.362-.166.362-.345 0-.512-.562-1.101-1.236-1.101-.5 0-1.435.397-1.435 1.78 0 .217.025.447.038.678l2.271-1.012zm2.377-1.78v.844h-.1v-.844h-.272v-.088h.645v.088h-.273zm1.123.844v-.852h-.004l-.254.852h-.078l-.256-.852h-.003v.852h-.091v-.932h.155l.232.753h.003l.228-.753h.158v.932h-.09z"/>
            <path fill="#F9F9FA" d="M37.348 9.833h-.63c0-.082-.06-.315-.18-.697h-.91c-.123.376-.185.609-.185.697h-.593c0-.049.153-.446.46-1.193.307-.747.46-1.158.46-1.234h.745c0 .07.138.476.416 1.216.278.74.417 1.144.417 1.21zm-.91-1.053c-.225-.642-.337-.988-.337-1.04h-.032c0 .048-.116.395-.348 1.04h.717zm3.45 1.053h-.486c0-.051-.18-.32-.542-.807-.378-.514-.594-.864-.646-1.053h-.032c.033.272.05.518.05.738 0 .307.009.68.027 1.122h-.484a25.107 25.107 0 0 0 0-2.427h.585c0 .066.162.329.486.789.345.488.544.82.595.993h.03a6.664 6.664 0 0 1-.048-.745c0-.337-.009-.683-.027-1.037h.492c-.018.308-.027.694-.027 1.158 0 .467.009.89.027 1.269zm2.855-1.298c0 .353-.12.662-.358.925-.24.264-.574.395-1.005.395-.194 0-.462-.007-.804-.022a28.245 28.245 0 0 0 0-2.427h.345a8.5 8.5 0 0 0 .252-.006l.219-.005c.474 0 .817.112 1.031.335.213.224.32.492.32.805zm-.537.08a.87.87 0 0 0-.221-.603c-.147-.163-.372-.245-.674-.245-.056 0-.134.006-.232.017.013.249.02.508.02.78 0 .296.006.59.019.883.084.016.17.024.256.024.282 0 .491-.083.627-.249a.926.926 0 0 0 .205-.606zm3.17 1.218h-.583c-.153-.44-.27-.712-.35-.815-.082-.103-.213-.154-.395-.154l-.218.001c0 .32.006.642.018.968H43.3a28.245 28.245 0 0 0 0-2.427h.34l.248-.006c.125-.003.241-.005.348-.005.602 0 .904.195.904.585 0 .31-.172.525-.516.647v.028c.132.035.249.133.348.293.1.161.235.456.404.885zm-.739-1.715c0-.247-.168-.371-.504-.371-.123 0-.232.009-.327.026.015.193.022.444.022.753.072.003.133.004.183.004.417 0 .626-.137.626-.412zm3.563.457c0 .381-.124.697-.37.948-.248.251-.553.377-.917.377a1.19 1.19 0 0 1-1.221-1.225c0-.381.123-.697.37-.948s.553-.377.916-.377c.347 0 .637.115.871.345.234.23.35.523.35.88zm-.544.054c0-.26-.07-.47-.21-.632a.663.663 0 0 0-.52-.243.611.611 0 0 0-.49.244.94.94 0 0 0-.2.618c0 .258.07.468.211.63a.662.662 0 0 0 .52.244.61.61 0 0 0 .488-.245.94.94 0 0 0 .201-.616zm1.658 1.204h-.558a28.858 28.858 0 0 0 0-2.427h.558a28.378 28.378 0 0 0 0 2.427zm2.855-1.298c0 .353-.12.662-.359.925-.239.264-.574.395-1.004.395-.195 0-.463-.007-.804-.022a28.197 28.197 0 0 0 0-2.427h.345c.056 0 .14-.002.252-.006a8.83 8.83 0 0 1 .218-.005c.474 0 .818.112 1.032.335.213.224.32.492.32.805zm-.538.08a.87.87 0 0 0-.22-.603c-.148-.163-.372-.245-.674-.245-.057 0-.134.006-.233.017.013.249.02.508.02.78 0 .296.006.59.02.883.084.016.17.024.255.024.283 0 .492-.083.628-.249a.926.926 0 0 0 .204-.606zm4.326 1.218h-.63c0-.082-.06-.315-.18-.697h-.91c-.124.376-.186.609-.186.697h-.592c0-.049.153-.446.46-1.193.306-.747.46-1.158.46-1.234h.744c0 .07.14.476.417 1.216.277.74.417 1.144.417 1.21zm-.91-1.053c-.225-.642-.338-.988-.338-1.04h-.031c0 .048-.116.395-.348 1.04h.717zm3.207-.739c0 .297-.116.517-.35.658-.232.142-.518.213-.857.213a1.64 1.64 0 0 1-.132-.004c0 .234.007.542.021.925h-.553c.017-.36.025-.782.025-1.27 0-.447-.008-.833-.025-1.157h.343c.048 0 .141-.002.28-.006.137-.003.256-.005.358-.005.25 0 .46.053.632.16a.534.534 0 0 1 .258.486zm-.508.103c0-.266-.186-.399-.56-.399-.093 0-.191.01-.295.028.015.235.022.5.022.798.033.002.071.003.114.003.48 0 .72-.143.72-.43zm2.871-.103c0 .297-.117.517-.35.658-.233.142-.519.213-.857.213a1.64 1.64 0 0 1-.133-.004c0 .234.008.542.022.925h-.553c.017-.36.025-.782.025-1.27 0-.447-.008-.833-.025-1.157h.342c.049 0 .142-.002.28-.006.138-.003.257-.005.358-.005.25 0 .46.053.633.16a.534.534 0 0 1 .258.486zm-.508.103c0-.266-.187-.399-.56-.399-.093 0-.191.01-.295.028.015.235.022.5.022.798.032.002.07.003.114.003.48 0 .719-.143.719-.43zm4.371.43c0 .382-.123.698-.37.95a1.234 1.234 0 0 1-.916.376 1.19 1.19 0 0 1-1.222-1.225c0-.381.124-.697.37-.948.248-.252.553-.377.917-.377.346 0 .637.115.87.345.234.23.351.523.351.88zm-.544.055c0-.26-.07-.47-.21-.632a.663.663 0 0 0-.52-.243.611.611 0 0 0-.489.244.94.94 0 0 0-.201.618c0 .258.07.468.212.63a.662.662 0 0 0 .519.244.61.61 0 0 0 .488-.245.94.94 0 0 0 .201-.616zm3.214 1.204h-.487c0-.051-.18-.32-.541-.807-.378-.514-.594-.864-.646-1.053h-.032c.033.272.05.518.05.738 0 .307.009.68.027 1.122h-.485a25.09 25.09 0 0 0 0-2.427h.585c0 .066.163.329.487.789.345.488.544.82.595.993h.03a6.66 6.66 0 0 1-.048-.745c0-.337-.01-.683-.028-1.037h.493a26.46 26.46 0 0 0 0 2.427z"/>
        </g>
    </g>
</svg>
