<svg xmlns="http://www.w3.org/2000/svg" xmlns:xlink="http://www.w3.org/1999/xlink" width="107" height="36" viewBox="0 0 107 36">
    <defs>
        <rect id="b" width="106.25" height="34" rx="17"/>
        <filter id="a" width="101.9%" height="111.8%" x="-.9%" y="-2.9%" filterUnits="objectBoundingBox">
            <feOffset dy="2" in="SourceAlpha" result="shadowOffsetOuter1"/>
            <feComposite in="shadowOffsetOuter1" in2="SourceAlpha" operator="out" result="shadowOffsetOuter1"/>
            <feColorMatrix in="shadowOffsetOuter1" values="0 0 0 0 0 0 0 0 0 0 0 0 0 0 0 0 0 0 0.197293931 0"/>
        </filter>
    </defs>
    <g fill="none" fill-rule="evenodd">
        <g>
            <use fill="#000" filter="url(#a)" xlink:href="#b"/>
            <use fill="#52C24B" xlink:href="#b"/>
            <rect width="105.25" height="33" x=".5" y=".5" stroke="#EDEDED" rx="16.5"/>
        </g>
        <g fill="#FFF" fill-rule="nonzero">
            <path d="M27.484 16.662c-.02-2.14 1.716-3.182 1.796-3.23-.983-1.464-2.507-1.664-3.042-1.68-1.28-.138-2.52.782-3.172.782-.665 0-1.669-.769-2.75-.746-1.393.022-2.695.845-3.41 2.123-1.474 2.606-.374 6.435 1.038 8.541.707 1.033 1.532 2.184 2.612 2.143 1.058-.044 1.452-.688 2.728-.688 1.264 0 1.635.688 2.737.662 1.134-.018 1.849-1.036 2.53-2.077.817-1.182 1.144-2.347 1.158-2.407-.027-.009-2.203-.857-2.225-3.423M25.402 10.366c.569-.726.958-1.714.85-2.716-.823.037-1.852.581-2.445 1.291-.524.626-.993 1.652-.872 2.616.925.07 1.874-.476 2.467-1.19M44.137 24.538h-1.523l-.835-2.66h-2.9l-.794 2.66h-1.483l2.874-9.058h1.774l2.887 9.058zm-2.609-3.777l-.755-2.364c-.08-.243-.23-.812-.45-1.708h-.026c-.089.386-.23.955-.424 1.708l-.742 2.364h2.397zM51.513 21.192c0 1.111-.297 1.99-.892 2.634a2.597 2.597 0 0 1-1.984.86c-.852 0-1.465-.308-1.837-.927v3.427h-1.43v-7.033c0-.697-.018-1.413-.053-2.146h1.257l.08 1.036h.027c.477-.781 1.2-1.171 2.172-1.171.759 0 1.393.304 1.9.913.506.61.76 1.413.76 2.407zm-1.456.053c0-.635-.141-1.16-.424-1.572-.31-.43-.725-.645-1.245-.645-.353 0-.673.12-.96.356a1.65 1.65 0 0 0-.563.935 1.911 1.911 0 0 0-.066.441v1.09c0 .474.144.875.43 1.203.288.327.66.491 1.12.491.538 0 .957-.212 1.257-.632.3-.421.45-.976.45-1.667zM58.916 21.192c0 1.111-.297 1.99-.892 2.634a2.599 2.599 0 0 1-1.985.86c-.852 0-1.465-.308-1.837-.927v3.427h-1.43v-7.033c0-.697-.019-1.413-.053-2.146h1.257l.08 1.036h.027c.476-.781 1.2-1.171 2.172-1.171.758 0 1.393.304 1.9.913.506.61.76 1.413.76 2.407zm-1.458.053c0-.635-.141-1.16-.424-1.572-.309-.43-.723-.645-1.244-.645-.352 0-.673.12-.96.356a1.653 1.653 0 0 0-.563.935 1.955 1.955 0 0 0-.067.441v1.09c0 .474.144.875.43 1.203.287.326.66.491 1.12.491.54 0 .959-.212 1.258-.632.3-.421.45-.976.45-1.667zM67.192 21.998c0 .77-.265 1.398-.793 1.882-.581.528-1.392.793-2.431.793-.96 0-1.73-.188-2.312-.565l.331-1.21a3.94 3.94 0 0 0 2.066.566c.539 0 .958-.124 1.257-.37.3-.247.452-.576.452-.987 0-.368-.125-.677-.372-.928-.247-.25-.656-.484-1.23-.698-1.563-.592-2.345-1.457-2.345-2.595 0-.743.276-1.352.827-1.828.55-.475 1.282-.712 2.191-.712.813 0 1.49.143 2.027.43l-.36 1.183c-.505-.278-1.076-.417-1.714-.417-.505 0-.9.126-1.183.377-.238.224-.36.497-.36.82 0 .358.138.655.412.887.237.215.67.449 1.297.7.769.314 1.333.68 1.695 1.1.364.421.545.946.545 1.572M71.932 19.096h-1.576v3.171c0 .807.278 1.209.834 1.209.256 0 .468-.022.635-.067l.04 1.102c-.282.106-.653.16-1.111.16-.566 0-1.006-.175-1.326-.525-.317-.35-.476-.936-.476-1.76v-3.293h-.939v-1.09h.939v-1.195l1.404-.43v1.626h1.576v1.092M79.03 21.219c0 1.004-.283 1.828-.848 2.473-.591.663-1.377.994-2.357.994-.946 0-1.698-.318-2.258-.953-.561-.636-.841-1.438-.841-2.405 0-1.013.29-1.842.867-2.486.578-.645 1.357-.968 2.337-.968.945 0 1.703.32 2.278.954.549.618.821 1.413.821 2.39zm-1.483.033c0-.598-.127-1.111-.383-1.541-.3-.519-.73-.777-1.285-.777-.572 0-1.013.258-1.311.777-.257.43-.384.952-.384 1.568 0 .6.127 1.114.384 1.541.31.52.74.78 1.3.78.546 0 .974-.266 1.285-.792.262-.44.394-.956.394-1.556zM83.68 19.283a2.454 2.454 0 0 0-.451-.04c-.503 0-.892.192-1.166.578-.238.34-.357.77-.357 1.29v3.427h-1.43v-4.474c0-.753-.014-1.44-.041-2.057h1.245l.053 1.25h.04c.15-.43.388-.776.714-1.035a1.71 1.71 0 0 1 1.034-.35c.132 0 .251.01.357.026l.001 1.385M90.075 20.963c0 .26-.017.48-.053.659h-4.289c.016.645.224 1.14.622 1.48.361.303.83.456 1.403.456.635 0 1.215-.103 1.736-.31l.224 1.008c-.61.269-1.329.404-2.158.404-.998 0-1.781-.299-2.351-.893-.568-.596-.854-1.397-.854-2.4 0-.983.264-1.804.795-2.458.556-.698 1.306-1.047 2.25-1.047.928 0 1.63.349 2.106 1.047.379.554.569 1.24.569 2.054zm-1.364-.376c.01-.43-.084-.801-.278-1.116-.247-.404-.628-.605-1.138-.605-.469 0-.849.196-1.139.591a2.19 2.19 0 0 0-.423 1.129l2.978.001z"/>
            <g>
                <path d="M40.362 12.626H39.6l-.418-1.376h-1.45l-.399 1.376h-.742l1.438-4.686h.888l1.445 4.686zm-1.305-1.954l-.378-1.223a18.97 18.97 0 0 1-.225-.883h-.014c-.046.201-.113.494-.212.883l-.371 1.223h1.2zM43.958 9.247l-1.22 3.379h-.695l-1.18-3.379h.769l.55 1.787c.093.299.172.584.232.855h.02c.053-.243.132-.528.23-.855l.544-1.787h.75M46.554 12.626l-.053-.39h-.02c-.218.314-.537.467-.94.467-.577 0-.988-.425-.988-.995 0-.834.689-1.265 1.882-1.265v-.062c0-.445-.226-.668-.67-.668-.318 0-.596.084-.84.25l-.146-.493c.298-.195.669-.292 1.107-.292.841 0 1.266.466 1.266 1.398v1.244c0 .341.013.605.046.807l-.644-.001zm-.1-1.683c-.795 0-1.192.202-1.192.681 0 .355.205.528.49.528a.7.7 0 0 0 .703-.687v-.522zM48.745 8.69c-.238 0-.424-.194-.424-.451s.192-.445.438-.445c.245 0 .444.188.437.445a.429.429 0 0 1-.45.452zm-.344.557h.716v3.379H48.4V9.247zM50.388 7.697h.716v4.929h-.716zM54.145 12.626l-.054-.39h-.019c-.218.314-.536.467-.94.467-.577 0-.988-.425-.988-.995 0-.834.689-1.265 1.882-1.265v-.062c0-.445-.226-.668-.67-.668-.318 0-.596.084-.84.25l-.147-.493c.299-.195.67-.293 1.107-.293.841 0 1.267.466 1.267 1.398v1.244c0 .341.013.606.045.807h-.643zm-.1-1.683c-.795 0-1.192.202-1.192.681 0 .355.205.528.49.528a.7.7 0 0 0 .703-.687v-.522zM57.641 12.703c-.456 0-.794-.202-1.013-.599h-.014l-.04.522h-.61c.02-.27.026-.578.026-.91V7.696h.717v2.045h.013c.213-.376.557-.563 1.027-.563.776 0 1.32.695 1.32 1.71 0 1.048-.604 1.814-1.426 1.814zm-.145-2.935c-.412 0-.789.376-.789.897v.591c0 .466.339.848.776.848.536 0 .856-.458.856-1.188-.001-.681-.333-1.148-.843-1.148zM60.126 7.697h.715v4.929h-.715zM64.735 11.117h-2.148c.015.64.417 1.001 1.014 1.001.318 0 .61-.056.868-.16l.111.522c-.304.139-.662.208-1.08.208-1.007 0-1.603-.667-1.603-1.703s.61-1.814 1.524-1.814c.82 0 1.339.64 1.339 1.606.002.132-.004.25-.025.34zm-.655-.535c0-.521-.253-.89-.71-.89-.411 0-.735.376-.783.89h1.493zM69.073 12.703c-.941 0-1.551-.738-1.551-1.738 0-1.043.623-1.787 1.605-1.787.926 0 1.55.702 1.55 1.731 0 1.056-.643 1.794-1.604 1.794zm.027-2.976c-.517 0-.848.507-.848 1.216 0 .696.338 1.203.841 1.203.503 0 .841-.542.841-1.217 0-.688-.33-1.202-.834-1.202zM74.525 12.626h-.715v-1.94c0-.598-.219-.897-.65-.897-.424 0-.716.383-.716.827v2.01h-.714v-2.413c0-.299-.009-.619-.028-.966h.63l.033.521h.02c.191-.36.583-.59 1.021-.59.675 0 1.119.542 1.119 1.424v2.024M79.207 9.81h-.788v1.641c0 .418.139.626.417.626.126 0 .233-.014.318-.035l.02.57c-.14.056-.326.084-.556.084-.565 0-.9-.327-.9-1.182V9.811h-.47v-.564h.47v-.619l.701-.222v.84h.788v.565M82.996 12.626h-.716V10.7c0-.604-.219-.91-.65-.91-.37 0-.714.264-.714.8v2.036H80.2V7.697h.716v2.03h.014c.224-.369.55-.55.967-.55.682 0 1.1.556 1.1 1.44v2.009M86.653 11.117h-2.147c.013.64.416 1.001 1.013 1.001.32 0 .61-.056.867-.16l.112.522c-.304.139-.662.208-1.08.208-1.007 0-1.604-.667-1.604-1.703s.61-1.814 1.524-1.814c.821 0 1.339.64 1.339 1.606a1.52 1.52 0 0 1-.024.34zm-.656-.535c0-.521-.251-.89-.709-.89-.411 0-.735.376-.782.89h1.49z"/>
            </g>
        </g>
    </g>
</svg>
